<?xml version="1.0" encoding="utf-8"?>
<!-- Generator: Adobe Illustrator 19.1.0, SVG Export Plug-In . SVG Version: 6.00 Build 0)  -->
<svg version="1.1" id="Capa_1" xmlns="http://www.w3.org/2000/svg" xmlns:xlink="http://www.w3.org/1999/xlink" x="0px" y="0px"
	 viewBox="-279 370 53 53" style="enable-background:new -279 370 53 53;" xml:space="preserve">
<style type="text/css">
	.st0{fill:#424A60;}
	.st1{fill:#43B05C;}
	.st2{fill:#7383BF;}
	.st3{fill:#57D8AB;}
	.st4{fill:#D75A4A;}
	.st5{fill:#EBBA16;}
	.st6{fill:#4B6DAA;}
</style>
<rect x="-252" y="398" class="st0" width="2" height="18"/>
<rect x="-241.5" y="372.9" transform="matrix(-0.7071 -0.7071 0.7071 -0.7071 -681.7338 484.6151)" class="st0" width="2" height="21.2"/>
<rect x="-264" y="391.9" transform="matrix(-0.7071 -0.7071 0.7071 -0.7071 -736.054 507.1157)" class="st0" width="2" height="28.3"/>
<rect x="-268.3" y="383.5" transform="matrix(-0.7071 -0.7071 0.7071 -0.7071 -716.5837 472.1809)" class="st0" width="15.6" height="2"/>
<rect x="-252.1" y="402.5" transform="matrix(-0.7071 -0.7071 0.7071 -0.7071 -697.5839 518.0496)" class="st0" width="21.2" height="2"/>
<circle class="st1" cx="-231" cy="375" r="5"/>
<circle class="st2" cx="-251" cy="418" r="5"/>
<circle class="st3" cx="-274" cy="416" r="5"/>
<circle class="st4" cx="-267" cy="378" r="3"/>
<circle class="st5" cx="-235" cy="410" r="3"/>
<circle class="st6" cx="-251" cy="394" r="7"/>
</svg>
